<?xml version="1.0" standalone="no"?>
<!DOCTYPE svg PUBLIC "-//W3C//DTD SVG 20010904//EN"
 "http://www.w3.org/TR/2001/REC-SVG-20010904/DTD/svg10.dtd">
<svg version="1.0" xmlns="http://www.w3.org/2000/svg"
 width="500.000000pt" height="500.000000pt" viewBox="0 0 500.000000 500.000000"
 preserveAspectRatio="xMidYMid meet">

<g transform="translate(0.000000,500.000000) scale(0.100000,-0.100000)"
fill="#000000" stroke="none">
<path d="M0 2500 l0 -2500 2500 0 2500 0 0 2500 0 2500 -2500 0 -2500 0 0
-2500z m2040 1053 c36 -18 81 -46 101 -62 58 -49 140 -178 197 -311 l53 -125
-4 175 c-3 197 -14 237 -66 265 -17 8 -31 22 -31 30 0 13 31 15 205 15 174 0
205 -2 205 -15 0 -8 -14 -22 -31 -30 -62 -32 -64 -46 -67 -495 l-3 -405 37 35
c144 138 700 719 724 757 39 60 41 109 5 123 -59 23 -22 30 150 30 144 0 175
-2 175 -14 0 -8 -22 -21 -52 -31 -136 -44 -155 -60 -491 -399 l-318 -321 138
-5 c170 -7 217 -24 296 -110 67 -71 105 -145 207 -395 104 -256 153 -354 196
-399 30 -31 41 -36 80 -36 37 0 45 -3 42 -17 -4 -23 -38 -31 -138 -32 -182 -1
-212 34 -395 480 -109 264 -147 338 -202 391 -51 49 -102 69 -193 75 l-75 5
-94 -96 -93 -96 4 -57 c6 -70 116 -378 193 -538 107 -224 274 -430 395 -488
75 -37 182 -58 249 -50 70 8 67 -15 -4 -33 -142 -37 -245 -27 -375 37 -72 36
-101 58 -185 144 -55 55 -118 131 -140 168 l-40 66 -202 1 c-175 0 -203 2
-203 15 0 9 12 21 26 27 14 7 35 30 47 52 21 38 22 57 25 289 l4 247 -290 0
-289 0 -82 -212 c-45 -117 -81 -227 -81 -244 0 -43 32 -80 75 -88 19 -4 35
-11 35 -16 0 -6 -91 -10 -230 -10 -218 0 -285 9 -187 25 59 10 89 28 132 77
30 34 94 178 321 723 156 374 284 686 284 693 0 22 -95 109 -151 138 -83 42
-189 44 -311 8 -12 -4 -18 0 -18 10 0 9 3 16 8 16 4 1 43 12 87 25 66 20 98
24 180 22 90 -2 107 -5 165 -34z"/>
<path d="M2134 3245 c-81 -201 -284 -731 -284 -741 0 -12 47 -14 270 -14 l270
0 0 45 c0 47 -165 551 -219 668 -24 52 -30 59 -37 42z"/>
<path d="M2611 1937 c-1 -20 38 -101 45 -95 2 3 -7 29 -20 59 -14 30 -25 46
-25 36z"/>
</g>
</svg>
